<mxfile host="app.diagrams.net" agent="Mozilla/5.0 (Windows NT 10.0; Win64; x64) AppleWebKit/537.36 (KHTML, like Gecko) Chrome/132.0.0.0 Safari/537.36" version="26.0.8">
  <diagram name="PÃ¡gina-1" id="ugNYonyBPk6qFIPh8cB3">
    <mxGraphModel dx="1434" dy="738" grid="1" gridSize="10" guides="1" tooltips="1" connect="1" arrows="1" fold="1" page="1" pageScale="1" pageWidth="827" pageHeight="1169" math="0" shadow="0">
      <root>
        <mxCell id="0" />
        <mxCell id="1" parent="0" />
        <mxCell id="2AdBNrpjbDducpIuZtAQ-1" value="&lt;b&gt;ValidatorRepository&amp;lt;K,E&amp;gt;&lt;/b&gt;" style="swimlane;fontStyle=0;align=center;verticalAlign=top;childLayout=stackLayout;horizontal=1;startSize=30;horizontalStack=0;resizeParent=1;resizeParentMax=0;resizeLast=0;collapsible=0;marginBottom=0;html=1;whiteSpace=wrap;fillColor=#d5e8d4;strokeColor=#82b366;" parent="1" vertex="1">
          <mxGeometry x="330" y="270" width="230" height="70" as="geometry" />
        </mxCell>
        <mxCell id="2AdBNrpjbDducpIuZtAQ-8" value="# sourceRepository: IRepository&amp;lt;K,E&amp;gt;" style="text;html=1;align=left;verticalAlign=middle;spacingLeft=4;spacingRight=4;overflow=hidden;rotatable=0;points=[[0,0.5],[1,0.5]];portConstraint=eastwest;whiteSpace=wrap;fillColor=default;" parent="2AdBNrpjbDducpIuZtAQ-1" vertex="1">
          <mxGeometry y="30" width="230" height="20" as="geometry" />
        </mxCell>
        <mxCell id="7DSVnzMwaJu-oXMH9UBE-12" value="# validator: IValidator&amp;lt;E&amp;gt;" style="text;html=1;align=left;verticalAlign=middle;spacingLeft=4;spacingRight=4;overflow=hidden;rotatable=0;points=[[0,0.5],[1,0.5]];portConstraint=eastwest;whiteSpace=wrap;fillColor=default;" vertex="1" parent="2AdBNrpjbDducpIuZtAQ-1">
          <mxGeometry y="50" width="230" height="20" as="geometry" />
        </mxCell>
        <mxCell id="7DSVnzMwaJu-oXMH9UBE-7" style="edgeStyle=orthogonalEdgeStyle;rounded=0;orthogonalLoop=1;jettySize=auto;html=1;endArrow=diamond;endFill=0;strokeColor=default;" edge="1" parent="1" source="7DSVnzMwaJu-oXMH9UBE-1" target="2AdBNrpjbDducpIuZtAQ-8">
          <mxGeometry relative="1" as="geometry" />
        </mxCell>
        <mxCell id="7DSVnzMwaJu-oXMH9UBE-1" value="&lt;b&gt;IRepository&amp;lt;K,E&amp;gt;&lt;/b&gt;" style="swimlane;fontStyle=0;align=center;verticalAlign=top;childLayout=stackLayout;horizontal=1;startSize=30;horizontalStack=0;resizeParent=1;resizeParentMax=0;resizeLast=0;collapsible=0;marginBottom=0;html=1;whiteSpace=wrap;fillColor=#d5e8d4;strokeColor=#82b366;" vertex="1" parent="1">
          <mxGeometry x="110" y="250" width="160" height="30" as="geometry" />
        </mxCell>
        <mxCell id="7DSVnzMwaJu-oXMH9UBE-9" value="&lt;b&gt;IValidator&amp;lt;E&amp;gt;&lt;/b&gt;" style="swimlane;fontStyle=0;align=center;verticalAlign=top;childLayout=stackLayout;horizontal=1;startSize=25;horizontalStack=0;resizeParent=1;resizeParentMax=0;resizeLast=0;collapsible=0;marginBottom=0;html=1;whiteSpace=wrap;fillColor=#d5e8d4;strokeColor=#82b366;" vertex="1" parent="1">
          <mxGeometry x="110" y="320" width="160" height="45" as="geometry" />
        </mxCell>
        <mxCell id="7DSVnzMwaJu-oXMH9UBE-8" value="+ validate(E entity): void" style="text;html=1;align=left;verticalAlign=middle;spacingLeft=4;spacingRight=4;overflow=hidden;rotatable=0;points=[[0,0.5],[1,0.5]];portConstraint=eastwest;whiteSpace=wrap;fillColor=default;" vertex="1" parent="7DSVnzMwaJu-oXMH9UBE-9">
          <mxGeometry y="25" width="160" height="20" as="geometry" />
        </mxCell>
        <mxCell id="7DSVnzMwaJu-oXMH9UBE-14" style="edgeStyle=orthogonalEdgeStyle;rounded=0;orthogonalLoop=1;jettySize=auto;html=1;exitX=1;exitY=0.25;exitDx=0;exitDy=0;endArrow=diamond;endFill=0;" edge="1" parent="1" source="7DSVnzMwaJu-oXMH9UBE-9">
          <mxGeometry relative="1" as="geometry">
            <mxPoint x="330" y="331" as="targetPoint" />
          </mxGeometry>
        </mxCell>
      </root>
    </mxGraphModel>
  </diagram>
</mxfile>
